PathFileType	4	(X/Y/Z)	D:\TRACE\v60_Jaco2_6-2-23\ArmBody_Mo1_DMP_1-platform.trc
DataRate	CameraRate	NumFrames	NumMarkers	Units	OrigDataRate	OrigDataStartFrame	OrigNumFrames
100.00	100.00	      72	5	mm	100.00	3621	      5792
Frame#	Time	Left_Front			Right_Front			Left_Aft			Right_Aft			Post			
		X1	Y1	Z1	X2	Y2	Z2	X3	Y3	Z3	X4	Y4	Z4	X5	Y5	Z5	

3621	36.200				740.65332	21.61596	-630.03961	-759.14905	-1.29499	483.53372	658.58972	-1.35444	585.85156	-36.15765	1325.30188	-939.96570	
3622	36.210				741.30121	22.07806	-630.09192	-758.17621	-1.79533	483.56329	659.03717	-1.77902	586.01709	-35.64219	1325.94995	-939.48779	
3623	36.220				741.92572	22.41055	-629.91479	-757.68250	-2.04117	483.57306	659.54626	-2.02829	586.47821	-35.42788	1326.45789	-938.81677	
3624	36.230				742.54749	22.94700	-629.83203	-757.13666	-2.04697	483.74017	660.19012	-2.26543	586.18372	-34.86926	1327.03723	-938.10132	
3625	36.240				743.19580	23.23365	-629.56531	-756.66980	-2.17680	483.80844	661.10736	-2.38397	586.33075	-34.16273	1327.69946	-937.06396	
3626	36.250				743.85187	23.51683	-629.46198	-755.70148	-2.54442	483.79843	661.52722	-2.45395	586.35199	-33.40008	1328.01770	-936.00830	
3627	36.260				744.53107	23.66033	-629.49188	-755.23157	-2.74365	483.84500	662.23358	-2.83714	586.39124	-32.80548	1328.25342	-934.87952	
3628	36.270				745.10413	23.80477	-629.46136	-754.58112	-3.01738	484.15408	663.03101	-3.21679	586.48608	-31.92552	1328.52600	-933.69965	
3629	36.280				745.72900	24.10642	-629.38013	-753.96588	-3.16260	484.07736	663.37543	-3.42595	586.51392	-31.24173	1328.90417	-932.67535	
3630	36.290				746.45978	24.72102	-629.17126	-753.09607	-3.40259	484.00238	663.97260	-3.70288	586.53192	-30.82472	1329.57520	-931.80389	
3631	36.300				747.10547	24.98960	-629.26746	-752.45392	-3.56226	484.03055	664.75952	-4.01014	586.65631	-30.27306	1329.93164	-931.16437	
3632	36.310				747.69800	25.12304	-629.12030	-751.93817	-3.44716	484.34164	665.53192	-4.23839	586.72223	-29.43000	1330.28345	-930.72955	
3633	36.320				748.50763	25.47938	-628.84595	-750.72162	-4.41470	484.65002	666.06744	-4.63185	586.85175	-28.50576	1330.84912	-930.56696	
3634	36.330				749.43964	25.90457	-628.69360	-750.08936	-4.73776	484.87024	666.24854	-5.08421	586.77728	-27.98824	1331.38306	-930.09558	
3635	36.340				750.07990	26.29083	-628.71112	-749.28870	-5.05584	485.13153	667.19104	-5.35049	586.81598	-27.43333	1331.90686	-929.87695	
3636	36.350				750.54919	26.65490	-628.80786	-748.61139	-5.37426	485.15601	668.32550	-5.51226	586.88434	-26.61413	1332.48132	-929.51221	
3637	36.360				751.44031	27.07544	-628.48291	-747.91180	-5.72593	485.21570	668.90198	-5.65695	586.96393	-25.95195	1332.86890	-928.95355	
3638	36.370				752.34503	27.40195	-628.23022	-747.23846	-5.80922	485.23874	669.97748	-6.00372	587.13324	-25.02130	1333.30969	-928.20142	
3639	36.380				752.97516	27.47196	-628.31360	-746.24310	-5.82322	485.33545	670.59851	-6.24455	587.15039	-24.37646	1333.67053	-927.42163	
3640	36.390				753.88629	27.79879	-628.41620	-745.43140	-6.19906	485.40552	671.28607	-6.27130	587.24152	-23.57739	1333.87964	-926.40216	
3641	36.400				754.67010	27.94152	-628.20569	-745.15759	-5.57869	484.97940	672.32861	-6.57233	587.40582	-22.88308	1334.37109	-925.48645	
3642	36.410				755.57220	28.31694	-627.76373	-744.13751	-5.90832	485.02322	673.19269	-6.75211	587.33740	-21.67582	1334.68054	-924.34967	
3643	36.420				756.06256	28.50356	-628.05566	-743.38062	-6.16149	485.01392	673.56726	-7.02022	587.45905	-20.87967	1335.06262	-923.58514	
3644	36.430				757.16376	28.73511	-628.19824	-742.75116	-6.17661	485.13895	673.85358	-7.51860	587.52075	-20.23764	1335.29431	-922.82965	
3645	36.440				758.01526	28.93005	-627.84052	-741.73657	-6.32098	485.29102	675.32928	-7.65307	587.57837	-19.65055	1335.69580	-922.14215	
3646	36.450				758.83167	29.22868	-627.44189	-740.87958	-6.79350	485.38297	675.90393	-7.93024	587.56561	-18.43058	1336.11572	-921.57813	
3647	36.460				759.64136	29.50461	-627.61438	-740.22278	-6.86556	485.49951	676.78516	-8.28036	587.59668	-17.68251	1336.68994	-921.29071	
3648	36.470				760.40204	29.85887	-627.88806	-739.16815	-7.17814	485.54736	677.56299	-8.63206	587.51636	-16.84511	1337.25488	-920.91937	
3649	36.480				761.38885	30.19288	-627.56934	-738.28223	-7.50614	485.54666	677.75751	-9.26371	587.39606	-16.55507	1337.45862	-920.54626	
3650	36.490				762.36041	30.53115	-627.24445	-737.56238	-7.42697	485.66534	678.90454	-9.44433	587.60443	-15.44457	1337.90051	-920.10187	
3651	36.500				763.03613	30.73861	-627.45825	-736.49457	-7.70300	485.67676	681.61224	-7.96917	588.24829	-14.01584	1338.36658	-919.64954	
3652	36.510				763.78009	31.02332	-627.49957	-735.59747	-7.95103	485.79132	682.26385	-8.34209	588.23511	-13.43755	1338.54333	-919.09155	
3653	36.520				764.73395	31.34090	-627.32025	-734.95490	-7.98767	485.85788	683.33740	-8.30274	588.33582	-12.82994	1338.89026	-918.37915	
3654	36.530				765.50397	31.46473	-627.15234	-734.01868	-8.18775	485.80746	684.28021	-8.65794	588.35956	-11.80902	1339.16345	-917.67365	
3655	36.540				766.60834	31.87478	-627.24951	-733.02692	-8.31838	485.90131	684.93713	-8.86988	588.34320	-10.82090	1339.62915	-917.07050	
3656	36.550				767.61169	31.94576	-627.06866	-732.19678	-8.46962	485.87253	686.07922	-8.89520	588.50677	-9.88918	1339.89417	-916.45874	
3657	36.560				768.16235	32.20519	-626.95538	-731.27350	-8.59104	486.01794	686.98584	-9.23971	588.53394	-9.24910	1340.16711	-915.85309	
3658	36.570				769.18188	32.65365	-626.89740	-730.36487	-8.81160	486.18427	688.63654	-8.83886	588.67633	-8.31531	1340.57446	-915.11511	
3659	36.580				770.56732	32.50465	-626.79956	-729.20978	-9.03940	486.11514	688.80817	-9.50107	588.62738	-7.31774	1341.07117	-914.36206	
3660	36.590				771.48737	32.62423	-626.60480	-728.41376	-9.15377	486.15247	689.70990	-9.62229	588.65723	-6.67537	1341.22314	-913.85571	
3661	36.600				771.99829	32.84961	-626.72211	-727.63965	-9.35093	486.20746	690.93066	-9.61087	588.85358	-5.63490	1341.43481	-913.31805	
3662	36.610				773.04077	33.19762	-626.72314	-726.89960	-8.95963	485.65106	691.57019	-10.07064	588.80475	-4.46821	1341.80481	-912.90094	
3663	36.620				774.27081	33.38940	-626.43762	-725.51282	-10.27532	486.76660	692.54071	-10.38011	588.83582	-3.40929	1342.21716	-912.59576	
3664	36.630				775.17017	33.65197	-626.29144	-724.14557	-10.47782	487.01569	693.75232	-10.22160	589.04999	-2.52932	1342.47754	-912.15753	
3665	36.640				775.74219	33.75753	-626.47400	-723.17572	-10.70097	487.12384	694.16937	-10.67872	588.98016	-1.87378	1342.76587	-911.76392	
3666	36.650				776.63287	34.11307	-626.50775	-723.05420	-10.37224	486.74481	695.43744	-10.83932	589.12848	-0.87949	1343.01465	-911.45465	
3667	36.660				778.10168	34.24549	-626.09064	-721.76709	-10.43021	486.62418	696.50055	-10.88455	589.16089	0.34349	1343.32190	-910.97510	
3668	36.670				778.93158	34.57314	-625.92328	-720.88855	-10.58920	486.55017	697.18835	-11.32858	589.20160	1.07132	1343.77344	-910.56537	
3669	36.680				779.74231	34.69559	-626.16168	-719.82233	-10.64643	486.70239	698.43140	-11.27516	589.37915	2.29497	1343.96680	-910.03644	
3670	36.690				780.87756	35.07824	-626.05817	-718.87366	-10.83212	486.74274	699.27826	-11.42692	589.32446	3.03952	1344.33008	-909.62115	
3671	36.700				781.86670	35.20729	-625.72247	-718.22125	-10.93164	486.90530	700.99335	-11.14822	589.48798	3.71118	1344.60364	-908.97491	
3672	36.710				782.71936	35.42843	-625.76715	-717.07227	-11.04197	486.95456	701.21625	-11.65191	589.46759	4.72205	1344.71094	-908.30048	
3673	36.720				783.63989	35.65964	-625.89484	-716.25842	-10.99280	487.06927	702.98749	-11.39373	589.56494	6.03982	1344.85071	-907.80682	
3674	36.730				784.54620	35.66330	-625.75439	-715.14429	-11.25114	487.01410	704.10608	-11.46724	589.67560	6.89071	1345.09045	-907.29272	
3675	36.740				785.62140	35.98506	-625.71173	-714.23169	-11.39688	486.96262	704.18921	-12.05053	589.56390	7.85186	1345.45520	-906.84760	
3676	36.750				786.55054	36.14975	-625.73822	-713.26324	-11.48225	487.01285	705.27228	-12.18549	589.66235	8.85484	1345.92139	-906.50952	
3677	36.760				787.54150	36.10830	-625.73956	-712.18048	-11.74245	487.04929	706.12256	-12.21220	589.74591	9.72063	1346.01917	-906.11932	
3678	36.770				788.54474	36.47221	-625.40790	-711.67487	-11.73105	487.16812	706.94751	-12.71182	589.72827	10.51237	1346.21973	-905.73584	
3679	36.780				789.58289	36.41941	-625.42047	-710.14398	-11.86013	487.34106	708.34888	-12.69368	589.80035	11.60498	1346.48132	-905.35681	
3680	36.790				790.58563	36.70116	-625.36151	-709.32935	-11.96290	487.30865	709.01270	-12.69351	589.89575	12.75069	1346.79346	-905.15125	
3681	36.800				791.32349	37.03609	-625.39600	-708.45026	-12.16553	487.34985	709.80066	-13.10894	589.89990	13.67923	1347.12427	-904.94153	
3682	36.810				792.49011	37.17507	-625.16595	-707.44971	-12.39743	487.34537	711.17188	-13.15277	589.92889	14.39500	1347.30786	-904.62817	
3683	36.820				793.24133	37.24112	-625.23767	-706.49792	-12.39435	487.50967	711.70117	-13.27499	589.95453	15.40846	1347.29431	-904.20862	
3684	36.830				794.29419	37.34172	-625.35724	-705.27130	-12.65199	487.51752	712.74451	-13.46803	590.02319	16.38441	1347.60571	-903.87201	
3685	36.840				794.91974	37.55838	-625.46362	-704.45618	-12.42728	487.48547	713.78552	-13.61659	590.02753	17.24629	1347.77441	-903.42572	
3686	36.850				796.44122	37.61626	-625.00201	-703.73920	-12.49682	487.53497	713.63641	-14.42451	589.94135	18.29696	1348.09692	-903.16089	
3687	36.860				797.34424	37.73175	-625.12628	-702.48645	-12.61940	487.49927	714.58289	-14.67399	589.77728	19.44271	1348.26294	-902.74927	
3688	36.870				798.18091	37.83003	-625.17096	-701.61627	-12.88530	487.48059	715.39374	-14.99703	589.58423	20.22913	1348.42017	-902.23566	
3689	36.880				798.98315	38.00725	-625.03564	-700.72894	-13.14089	487.78006	715.29987	-15.22355	589.36133	20.81175	1348.45508	-901.90778	
3690	36.890				799.98352	38.11547	-624.93036	-699.65912	-13.16202	487.82523	716.98126	-15.28813	589.15375	21.76087	1348.71130	-901.69812	
3691	36.900				800.87567	38.39171	-624.81964	-698.84241	-13.06543	487.78223	719.31970	-14.25314	590.16534	23.09562	1348.92053	-901.43665	
3692	36.910				801.57971	38.60366	-624.99304	-697.78284	-13.31934	487.70700	721.49786	-13.64410	591.16278	24.13677	1349.10413	-901.25366	
